<svg width="287" height="55" viewBox="0 0 287 55" fill="none" xmlns="http://www.w3.org/2000/svg">
<path d="M77.3619 16.1373H66.1308V8.37549H100.339V16.1373H89.1074V46.442H77.3619V16.1373Z" fill="black"/>
<path d="M92.0578 20.1611H103.337V26.3343H92.0578V20.1611ZM92.0578 28.7745H103.337V46.4425H92.0578V28.7745Z" fill="black"/>
<path d="M105.77 20.1608H117.049V23.4805C118.921 20.9565 121.637 19.5996 125.051 19.5996C130.384 19.5996 133.988 22.8746 133.988 28.3442V46.4422H122.709V29.6536C122.709 27.783 121.539 26.8477 119.949 26.8477C118.731 26.8477 117.703 27.3614 117.046 28.2046V46.4422H105.767V20.1608H105.77Z" fill="black"/>
<path d="M137.173 48.5001H141.479C141.479 48.5001 141.501 48.5001 141.512 48.5001C142.773 48.4947 143.611 47.1822 143.166 46.0042L133.43 20.1611H144.708L149.667 36.1065L154.395 20.1611H165.157L155.096 47.7994C153.272 52.5208 149.995 55 144.988 55H137.173V48.5001Z" fill="black"/>
<path d="M170.429 16.1373H159.198V8.37549H193.406V16.1373H182.174V46.442H170.429V16.1373Z" fill="black"/>
<path d="M185.619 39.943C185.619 34.3784 191.656 32.9741 196.898 31.4776C200.454 30.4501 202.561 29.5595 202.561 27.9708C202.561 26.801 201.577 26.0527 199.893 26.0527C197.834 26.0527 196.428 27.3621 196.009 29.7939H186.041C187.116 23.4338 192.827 19.5054 200.547 19.5054C208.922 19.5054 213.51 23.1992 213.51 29.9811V46.4429H202.513V43.8238C200.641 45.8817 197.786 47.004 194.324 47.004C189.131 47.004 185.619 44.2928 185.619 39.943ZM198.909 41.113C200.267 41.113 201.625 40.5992 202.513 39.7113V36.0648L202.561 34.1467C201.812 34.613 200.924 34.9872 200.035 35.3614C197.836 36.2491 196.291 37.14 196.291 38.8681C196.291 40.3172 197.227 41.113 198.912 41.113H198.909Z" fill="black"/>
<path d="M215.944 13.7109H227.222V46.4473H215.944V13.7109Z" fill="black"/>
<path d="M229.656 13.7088H240.792L240.653 30.6368L248.467 20.1612H259.791L251.415 30.7289L260.073 46.4426H248.045L243.505 37.2762L240.697 40.596L240.79 46.4426H229.653V13.7061L229.656 13.7088Z" fill="black"/>
<path d="M258.251 37.6054H268.22C268.686 40.0372 270.231 41.2071 272.43 41.2071C274.629 41.2071 275.612 40.4114 275.612 39.4313C275.612 37.7479 272.899 37.1867 269.622 36.4858C264.616 35.4556 258.299 34.1488 258.299 28.1154C258.299 22.9697 263.4 19.4629 271.307 19.4629C279.214 19.4629 284.55 22.643 285.768 28.7212H275.847C275.285 26.3843 273.788 25.4462 271.637 25.4462C269.717 25.4462 268.781 26.1944 268.781 27.1298C268.781 28.7212 271.542 29.235 274.863 29.9358C279.87 30.9632 286.19 32.3676 286.19 38.3063C286.19 43.449 281.043 47.1459 272.712 47.1459C264.898 47.1459 259.469 44.0579 258.251 37.6054Z" fill="black"/>
<path d="M20.4651 1.09168V7.8037C20.4651 8.40679 20.9541 8.89538 21.5576 8.89538H23.0607C23.4937 8.89538 23.8877 9.15225 24.0609 9.54871L27.4275 17.2547L30.7942 9.54871C30.9674 9.15225 31.3613 8.89538 31.7942 8.89538H33.2973C33.9007 8.89538 34.3897 8.40679 34.3897 7.8037V1.09168C34.3897 0.488605 33.9007 0 33.2973 0H21.5604C20.9569 0 20.468 0.488605 20.468 1.09168H20.4651Z" fill="#6D51EE"/>
<path d="M41.1257 3.88275L36.3763 8.6292C35.9487 9.05638 35.9487 9.74602 36.3763 10.1732L37.4377 11.2342C37.7452 11.5413 37.8403 11.9992 37.681 12.404L34.6076 20.2329L42.4418 17.1616C42.8467 17.0025 43.305 17.1002 43.6124 17.4045L44.6738 18.4655C45.1014 18.8927 45.7916 18.8927 46.2189 18.4655L50.9686 13.7191C51.3959 13.2919 51.3959 12.6023 50.9686 12.1751L42.6681 3.87997C42.2405 3.45277 41.5503 3.45277 41.123 3.87997L41.1257 3.88275Z" fill="#6D51EE"/>
<path d="M53.7623 20.4541H47.0459C46.4425 20.4541 45.9535 20.9427 45.9535 21.5458V23.0479C45.9535 23.4807 45.6965 23.8743 45.2996 24.0474L37.5886 27.4118L45.2996 30.7763C45.6965 30.9493 45.9535 31.3432 45.9535 31.7758V33.2779C45.9535 33.8811 46.4425 34.3695 47.0459 34.3695H53.7623C54.3658 34.3695 54.8548 33.8811 54.8548 33.2779V21.5486C54.8548 20.9455 54.3658 20.4569 53.7623 20.4569V20.4541Z" fill="#6D51EE"/>
<path d="M50.9712 41.1015L46.2218 36.3551C45.7943 35.9278 45.1043 35.9278 44.6768 36.3551L43.615 37.4162C43.3076 37.7234 42.8496 37.8182 42.4444 37.659L34.6105 34.5879L37.6837 42.4167C37.8429 42.8216 37.7451 43.2793 37.4407 43.5864L36.3789 44.6475C35.9514 45.0745 35.9514 45.7642 36.3789 46.1914L41.1286 50.9379C41.5559 51.3651 42.2461 51.3651 42.6734 50.9379L50.9742 42.6427C51.4015 42.2157 51.4015 41.5261 50.9742 41.0988L50.9712 41.1015Z" fill="#6D51EE"/>
<path d="M34.387 53.727V47.0151C34.387 46.4119 33.898 45.9232 33.2945 45.9232H31.7915C31.3583 45.9232 30.9644 45.6665 30.7912 45.2699L27.4247 37.564L24.058 45.2699C23.8848 45.6665 23.4909 45.9232 23.0578 45.9232H21.5547C20.9513 45.9232 20.4623 46.4119 20.4623 47.0151V53.727C20.4623 54.3302 20.9513 54.8185 21.5547 54.8185H33.2919C33.8953 54.8185 34.3843 54.3302 34.3843 53.727H34.387Z" fill="#6D51EE"/>
<path d="M13.7263 50.9378L18.4759 46.1914C18.9033 45.7642 18.9033 45.0745 18.4759 44.6475L17.4142 43.5864C17.1069 43.2793 17.0119 42.8216 17.1711 42.4167L20.2444 34.5879L12.4104 37.6589C12.0053 37.8182 11.5471 37.7204 11.2398 37.4162L10.1781 36.3551C9.75066 35.9278 9.06056 35.9278 8.63309 36.3551L3.88353 41.1015C3.45606 41.5288 3.45606 42.2184 3.88353 42.6457L12.1841 50.9408C12.6116 51.3678 13.3016 51.3678 13.7291 50.9408L13.7263 50.9378Z" fill="#6D51EE"/>
<path d="M1.0924 34.3666H7.80887C8.41235 34.3666 8.90127 33.878 8.90127 33.2751V31.7729C8.90127 31.34 9.15829 30.9464 9.55502 30.7732L17.2661 27.4089L9.55502 24.0445C9.15829 23.8714 8.90127 23.4777 8.90127 23.045V21.5429C8.90127 20.9398 8.41235 20.4512 7.80887 20.4512H1.0924C0.488926 20.4512 0 20.9398 0 21.5429V33.2721C0 33.8753 0.488926 34.364 1.0924 34.364V34.3666Z" fill="#6D51EE"/>
<path d="M3.8835 13.7197L8.63309 18.4661C9.06053 18.8933 9.75062 18.8933 10.1781 18.4661L11.2398 17.4052C11.5471 17.098 12.0053 17.0031 12.4104 17.1622L20.2444 20.2335L17.1711 12.4046C17.0119 11.9998 17.1097 11.5419 17.4142 11.2348L18.4759 10.1738C18.9033 9.74662 18.9033 9.057 18.4759 8.62983L13.7263 3.88337C13.2988 3.45619 12.6088 3.45619 12.1813 3.88337L3.88072 12.1785C3.45325 12.6057 3.45325 13.2953 3.88072 13.7225L3.8835 13.7197Z" fill="#6D51EE"/>
</svg>
