<svg xmlns="http://www.w3.org/2000/svg" data-name="Layer 2" viewBox="0 0 40.75 17.57"><path d="M40.73 13.55c.4-3.97-4.49-5.23-7.39-3.93C35.9-.51 19.59-3.76 16.1 5.36c-1.09 2.84-2.9-.22-5.35 2.99-.32.29-.46.87-.74 1.1-.66-.83-1.7-1.39-2.75-1.5-3.06.08-7.29.66-7.26 4.61-.02.79-.01 2.52.84 2.83 4.59 3.79 11.3 1.3 16.81 1.88 5.13.05 11.7.51 16.82.02 2.81.8 6.61-.07 6.25-3.74Zm-7.95-2.29"/><path fill="#e8e8e8" d="M32.42 10.95c2.67-1.87 7-1.89 7.45 1.19.69 4.77-2.56 4.46-4.2 4.46H8.99c-6.37 0-7.65-1.91-7.65-3.67s.15-3.67 4.95-4.1c2.53-.22 3.6.81 4.05 1.84.91-3.01 3.68-3.87 5.97-3.12 1.43-11.44 20.43-6.42 16.11 3.41Z"/></svg>