<svg xmlns="http://www.w3.org/2000/svg" data-name="Layer 2" viewBox="0 0 130 129.52"><path fill="#4c4c4c" d="M17.91 10.8c.11-.05.11-.23.37-.23 1.7.09-.09 2.77-1.21 1.29-.02-.71.31-.81.84-1.06M5.08 59.32c-.03.59-.37.41-.52.49-.42.61-1.41 1.22-2.15.91.32-.22.3-.57.52-.85.37-.47 1.6-1.02 2.15-.55m8.08-1.6c.03.07.29.16.28.25-.22.21-.32.2-.58.06l-.12.53-1.09-.1c-.61-1.12 2.02-1.75 1.51-.73ZM1.26 26.85c-.5.35-.96.27-1.2-.32-.41-.99 1.37-1.06 1.68-.29-.13.2-.28.47-.48.61m8.73 25.06-.11.16-.55-.39c.04-.23 1.17-.94 1.44-.97 1.47-.17-.13 1.41-.78 1.2M6.52 23.4c.28.43-.56.67-.04.94-.48.09-.66.71-1.1.35-.6-.49.6-2.11 1.14-1.29m9.3 43.05c-.05.06-.72.29-.88.26-1.42-1 1.71-1.9.88-.26m-9.8-4.29c-.2.17-.19.52-.39.63-.25.14-.74.05-.74-.27 0-.07.94-.93 1-.96.69-.03.84.44.12.6Zm.78-49.88c.64.04.49 1.04-.04 1.1-1.01.1-.77-1.14.04-1.1M19.42 55.2c-.68.33-1.17-1 .43-1.13.32.31-.14.97-.43 1.13M8.91 69.77c0 .91-1.95 1.12-1.31.24.31-.43.85-.39 1.31-.24m-.2-38.51c.05.07-.07.3.18.4-.4.37-.67.64-1.19.27.02-.5.62-1.28 1.02-.67Zm-6.47 6.3s-.06.35-.05.39c.02.09.27.06.11.47-.63 1.2-1.29-1.2-.06-.86m9.97-17.11c.83.11-.16 1.77-.71.46.05-.18.55-.49.71-.46M5.26 74.26c-.32-.09-.79.13-.96-.23.34-.76 1.72-.73.96.23m23.33-63.11-.09.44c-.38-.24-.8-.12-1.23-.13.11-.74.82-.39 1.31-.31Zm-17.07 62.1-.39.26.46-.02-.07.32-.82.19c-.27-.67.22-.86.83-.74Zm-.87-38.45-.53-.22.04.35-.53-.22c.24-.66.99-.71 1.01.09Zm17.99 3.34c-.37.08-1.04 1.14-1.3 1.26-.17.11-.22-.07-.39-.09-.1-.18 1.23-1.27 1.25-1.68.23.06.71.19.43.51Zm13.01-21.08-.16.3.19.16c-.81-.31-.62.53-.85.63-.27.12-.79.04-.93-.25.22-.23.91-.43 1.09-.43.19-.09.27-.65.67-.41ZM24.39 39.02l.32-.73c.3.02.74-.74.92-.62.5.34-1.09 1.57-1.23 1.35Zm6.15 24.01-.28-.35.66-.99.58-.06zm9.16-46.48c-.64.12-.47.83-1.57.49l.63-.54.93-.17v.22ZM28.71 33.96c-.48.04-.98 1.39-1.38 1.21-.27-.43.88-1.47 1.38-1.21M27.15 1.02c-.22.15-1.22.59-1.39.33-.34-.51 1.69-.94 1.76-1.36l.25.16c.13.32-.37.7-.62.87m3.74.9c.25.41-1.34.15-1.44-.18.34-.32 1.04.06 1.44.18"/><path fill="#353535" d="M128.54 38.8c-.3-.1-.72-.8-1.07-.97-.18-1.03 1.22-1.15 1.91-1.09 1.14.87.63 2.39-.84 2.07Zm-8.42-3.8c-1.18-.61-1.34-1.59.02-2.12.82-.11 1.58 1.65.82 1.99-.04.02-.8.13-.84.12Zm4.8.79-.64.16.52.18c-1.31.6-1.13-1.14-.37-.6.26.03.34-.28.49.25Zm-6.38-20.18c.65.88 1.86 1.75 2.01 2.86.12.3.53.57.29.95-.89.38-1.74-1.74-2.21-2.25-.09-.17-.51-1.69-.09-1.56M97.7 8.74c-.31.36-.54.04-.57.05-.09.01-.17.16-.31.16-.72.03-2.16.06-1.91-1.01.16-.23 2.08.02 2.46.04l.34.77Zm1.21-2.57c-.05.17-1.88-.1-2.14-.16-.4-.09-.84-.52-1.23-.26-.68-1.6 3.3-.45 3.37.42m-9.48 5.78-.35.16.12-.34c-.54.4-.88-.12-1.35-.32-.34-.14-1.26-.04-.95-.75.4-.3 1.83.66 2.36.64l.18.62Zm13.72-.61c-.27-.02-.65-.59-.51-.89.64-.32 1.23-.3 1.89-.09l-.12.55zM83.8 3.09c-.24.12-.47-.02-.75.01-.58.03-.99.22-1.57.2l-.29-.56c.79-.07 2.28-.61 2.61.35m31 10.4c.7-.42 1.55.15 1.48.97-.75.7-1.03-.5-1.48-.97M81.34 6.81c-.02.05-.17.11-.23.2.06.48-.55.31-.84.48-.04-.3-.12-.48-.42-.59.14-.61 1.77-1.01 1.49-.09m9.96-.65h-1.27l-.34-.97c.09-.17 1.31.4 1.37.47.11.14.15.34.24.5m25.86 12.09c-.57.78-1.23-.71-.92-1.26.45.07 1.06.81.92 1.26m-22.87-7.3c-.6.11-1.41.23-1.56-.56.03-.12 1.6.1 1.56.56m-.96-6.9c-.11-.27.48-.32.65-.32v-.29l.47-.06-.09.4c.31.19.41 0 .61-.22l.05.55c-.54-.1-1.16-.27-1.69-.07Zm3.32 10.68c-.08.17-.4.15-.52-.04l-.29.14.05.26-.51-.62c.32-.25 1.09-.07 1.27.26M44.02 122.69c.26-.17 1.07-.06 1.43-.23.92.51.13 1.67-.34 2.17-1.39.35-2.25-1.01-1.08-1.95Zm8.24-4.18c1.22-.54 2.08-.05 1.64 1.34-.43.71-2.27.2-2.07-.61.01-.04.4-.7.43-.73m-3.63 3.24.28-.6-.47.29c.35-1.39 1.59-.17.7.09-.19.18 0 .44-.5.23Zm19.73 7.68c-1.09-.05-2.53.36-3.49-.23-.31-.09-.77.06-.92-.37.26-.93 2.45-.27 3.14-.31.19.03 1.64.66 1.27.91m18.41-11.94c-.09-.47.31-.45.32-.47.05-.08-.02-.23.07-.34.43-.58 1.31-1.72 1.99-.86.08.27-1.32 1.61-1.57 1.89zm1.25 2.55c-.1-.15 1.26-1.4 1.47-1.57.32-.26.93-.33.97-.79 1.67.48-1.72 2.85-2.44 2.36m1.43-11 .09-.38.19.31c.03-.67.64-.61 1.1-.86.32-.18.82-.95 1.18-.27-.02.5-1.66 1.01-1.97 1.44l-.59-.25Zm-8.11 11.07c.18-.19.87-.14 1.01.16-.15.7-.54 1.15-1.11 1.53l-.35-.44zm18.55-9.91c.06-.27.31-.35.46-.59.34-.47.45-.91.83-1.35l.62.12c-.44.66-.95 2.16-1.91 1.82m-27.54 17.64c-.11.8-1.09 1.11-1.68.54-.08-1.02 1.03-.49 1.68-.54m26.18-21.89s.02-.2-.01-.3c-.41-.25.1-.62.15-.96.26.15.45.21.72.04.39.49-.32 2.01-.86 1.22m-5.74 8.17.79-.99.97.35c.08.18-1.13.77-1.22.77-.18 0-.36-.09-.54-.12ZM67.17 126.7c-.25-.93 1.33-.51 1.55.07-.34.3-1.29.32-1.55-.07m20.02-13.25c.3-.54.71-1.24 1.41-.86.08.09-1.08 1.19-1.41.86m5.98 3.58c.28.09-.05.58-.16.71l.22.19-.24.4-.26-.33c-.34.12-.25.32-.21.61l-.46-.31c.42-.36.94-.74 1.11-1.27m-10.41-4.1c-.08-.17.14-.41.36-.38l.07-.32-.24-.12h.8c0 .4-.62.88-1 .82Z"/></svg>