<svg xmlns="http://www.w3.org/2000/svg" data-name="Layer 2" viewBox="0 0 35.15 15.53"><path fill="#fff" d="M3.81 12.85C1.98 12.85.5 11.36.5 9.54s1.49-3.31 3.31-3.31l.37.03.22-.35a5.06 5.06 0 0 1 4.74-3.24c1.82 0 3.51.98 4.42 2.55l.18.31.35-.07c.2-.04.42-.06.65-.06 2.05 0 3.72 1.67 3.72 3.72s-1.67 3.72-3.72 3.72H3.81Z"/><path d="M9.14 3.18c1.64 0 3.16.88 3.98 2.3l.35.61.7-.13a3.224 3.224 0 0 1 3.78 3.17c0 1.78-1.44 3.22-3.22 3.22H3.81C2.26 12.35 1 11.09 1 9.54s1.26-2.81 2.86-2.81l.74.06.27-.69a4.57 4.57 0 0 1 4.28-2.92m-.01-1c-2.37 0-4.39 1.47-5.21 3.55h-.12a3.809 3.809 0 1 0 0 7.62h10.92a4.22 4.22 0 0 0 0-8.44c-.25 0-.5.02-.74.07a5.59 5.59 0 0 0-4.85-2.8"/><path d="M28.36 7.38c.78-3.07-3.21-5.43-5.52-3.26C19.8-4.24 7.7 1.48 11.68 9.23c-6.88-2.97-7.58 7.65 0 6.15H32.2c1.5.14 2.98-1.06 2.95-2.61.02-3.54-3.36-6.21-6.79-5.39"/><path fill="#e8e8e8" d="M28.13 7.93c-.39 1.07-1.51 2.01-2.79 2.04 1.05-.39 1.3-.6 1.51-.77 2.74-2.13.83-5.9-2.93-4.95-.33.1-.6.23-.77.51-.21.33-.1.82-.01 1.19.08.38.07.59-.02.44-.07-.11-.16-.39-.25-.73C21.9-.77 12.12-.18 11.46 6c-.14 1.47.16 3.05 1.22 4.11.52.51.76.77.14.28-2.28-2.41-6.09-.82-5.76 2.13.14 1.61 2.32 2.43 3.83 2.34 4.68.07 9.92.12 14.59.11 2.16-.07 4.87.56 6.82-.11 6.22-2.11-1.03-9.08-4.16-6.93Z"/></svg>