<svg xmlns="http://www.w3.org/2000/svg" data-name="Layer 2" viewBox="0 0 105.41 105.9"><path d="M56.44 0c-6.41.38-12.91.59-19.1 2.5-2.54.74-5.11 1.75-7.52 2.85C-4.75 21.56-10.63 69.28 19.4 93.06c7.63 6.7 17.14 11.42 27.27 12.65 1.08.14 2.18.27 3.27.1 5.25-.64 10.6-.63 15.74-2.07 3.33-.85 6.63-2.06 9.72-3.53.65-.33 1.65-.84 2.3-1.18 16.6-9.09 27.73-27.39 27.68-46.38.71-27-22.18-50.97-48.94-52.65"/><path fill="#7ab0e2" d="M82.04 93.85c-2.44 1.54-4.89 3.15-7.27 4.77-4.19 2.33-8.92 3.63-13.64 4.36-14.56 2.26-29.56-1.97-40.94-11.29-.49-.43-1.19-.55-1.75-.87-1.29-1.07-2.38-2.4-3.45-3.69-1.66-2.16-3.13-4.45-4.55-6.77-.23-.51-.75-.76-1.11-1.15-.3-.43-.52-.91-.78-1.36-.97-1.84-1.64-3.84-2.43-5.77-1.24-2.97-2.49-6.01-3.37-9.1-3.01-11.61-.52-24.35 5.39-34.67 1.1-1.84 2.34-3.75 3.67-5.45.33-.62.95-.82 1.44-1.25.62-.7 1.2-1.44 1.63-2.27.19-1.29.1-1.07 1.04-2.01 6.11-5.99 14.34-10.37 22.45-12.98 4.76-1.4 9.69-2.14 14.66-2.31 1.27.02 2.5-.5 3.77-.49.83 0 1.68.08 2.51.18 8.79.88 17.18 4.54 24.24 9.78 6.6 4.97 11.95 11.59 15.5 19.04.98 2.19 2.02 4.37 2.86 6.63 1.6 4.98 1.98 10.28 2.01 15.49.11 16.21-7.7 32.79-21.88 41.19Z"/><path fill="#6caad8" d="M1.6 52.66c0 27.92 22.63 50.55 50.55 50.55 6.21 0 8.85-8.1 5.13-5.93-3.41 1.99-3.15-.74-3.46-1.27-7.77-13.27-34.04-41.43-8.77-80.51 1.17-1.82 1.16-5.52 3.03-6.62 3.04-1.8 3.01-5.57 4.07-6.76C24.23 2.11 1.6 24.74 1.6 52.66"/><path d="M90.1 20.42s-.22-.11-.23-.11l.16.05c-8.24-3.82-4.93 3.34-9.14 5.9-3.85.9-6.56 1.37-8.1 5.49-2.03 2.89-6.18 1.79-7.84 4.96-2.71 7.93 6.09 7.5 9.35 2.14 3.54-3.73 18.81 2.48 16.93 7.19-.06.14-.15.27-.26.36-5.52 4.4-8.91-2.58-15.43-1.76-10.99-1.31-21.52 15.82-10.34 22.07 2.71 1.46 9.89-.68 11.09 1.47 4.86 6.97-7.9 16.49-.25 21.91 8.66-.74 12.78-13.58 16.03-19.84 8.75-9.56-.17-11.36 2.48-18.05 13.76 22.12 3.65-27.99-4.45-31.79ZM50.49 68.57c-2.88-2.74-7.42-1.69-8.8-4.52-1.45-2.53 1.67-6.53-2.55-6.96-5.38-1.18-15.26 6.16-16.6-2.23-.53-2.8-3.93-2.36-5.72-3.65-.6-2.6-1.42-8.08 2.46-8.33 5.06-1.25 3.82 8.04 8.06 4.99 1.84-3.89-.94-5.56 3.17-9.5 1.95-4.21 5.66-5.77 9.91-6.28 2.94-1.89.8-8.23-1.86-9.35-3.47.3-8.58 4.59-7.84-1.71 5.64-13.99 6.51.07 11.41-4.12 1.4-1.12.77-2.87.91-4.37 1.79-4.59 8.94-4.52 4.8-11.69-29.05 1.4-60.61 40.13-27.41 59.54 4.47 3.6-5.9 7.77 5.44 16.49 7.73 4.38.74 20.08 12.54 20.5 2.43-.29-1-3.99.82-6.14 2.22-7.95 17.83-14.04 11.27-22.67Z"/><path fill="#6ed6ae" d="M44.32 82.6c-2.58 2.31-3.16 6.08-5.56 8.59-1.96 2.35 1.06 6.05-.49 5.94-6.2.08-7.69-7.92-7.89-12.81.86-8.06-13.18-10.43-8.82-19.29 2.93-3-1.34-5.15-3.16-7.34-30.09-18.96 3.37-54.74 29.3-55.92 3.84 8.04-6.56 6.03-5.26 14.33-2.82 4.8-4.39-2.32-7.47-1.86-1.82.52-2.31 2.68-3.69 3.75-1.85 1.61-1.19 4.18-.88 6.29.79 2.96 6.25-.89 8.1-.8 2.8 1.48 4.93 9.01-.32 8.59-2.88-.45-4.98 2.44-6.9 4.13-1.07 1.32-1.54 2.46-2.84 3.88-1.75 1.87.33 7.41-2.43 8.22-1.8.24-.9-2.81-2.7-4.54-8.51-5.38-11.99 8.82-2.43 9.88 2.05 1.3 1.22 5.5 4 6.08 4.8.65 11.65-3.52 15.85-.85-1.26 9.36 3.16 6.7 9.22 10.59 5.06 4.23-2.02 10.57-5.64 13.14Z"/><path fill="#6caad8" d="M38.07 63.48c-3.13.58-6.72.51-9.58 2-.85 1.3.67.76 1.29.35.92-.43 1.29-.13.73.82-.94 2.19.28 1.47.67-.13.42-3 8.01-.44 6.89-3.04M22.2 29.66c.94 11.22-8.61-4.59-5 2.96 6.69 3.05 3.32 3.12 3.02 8.74 1.34-1.21 4.86-10.04 1.98-11.7m-7.31 13.88c-2.32-2.32.4-5.78-4.63-5.72-1.36-.24-.09-.95-.2-1.63-.38-.16-1.25.46-1.49 1.08-.43 1.54 1.91 1.75 2.92 2.1 1.57.42.96 1.56 1.31 2.77-.04.72 2.65 3.03 2.08 1.4Z"/><path fill="#6ed6ae" d="M100.28 57.1c-3.51 1.72-4.6-7.33-6.28-5.7-2.09 3.12.44 6.35 1.02 9.49 1.21 5.58-5.08 8.12-6 13.15-.4 4.74-4 8.47-7.29 11.59-3.78 3.92-7.85 4.34-7.08-2.34.96-4.2 4.06-7.93 3.58-12.45-.63-9.48-9.52-2.23-14.38-6.69-3.57-4.52-1.84-10.01 1.25-14.23 3.12-4.32 10.48-5.29 15.35-3.9 8.75 5.94 15.89-1.19 7.93-5.31-.39-.2-1-.43-1.36-.64-4.93-2.94-8.96-3.87-12.75-1.67-2.13 1.84-5.2 6.22-8.02 2.88-1.76-2.1-.34-5.45 2.17-6.14 2.28-.46 4.42-1.44 5.68-3.49 1.37-4.05 3.78-3.33 7.21-4.53 2.17-.8 2.67-3.04 2.69-5.12 10.48-8.44 18.47 28.1 16.29 35.1Z"/><path fill="#6caad8" d="M91.36 64.87c-9.38-1.31-3.25-.31-10.98 3.58 2.67.58 4.32-2.92 6.48-3.15.88.36 5.78 1.2 4.5-.44Zm-4.93-31.48c-1.02-.73.61-.36 2.68-3.67.85-1.36-.44 1.87.58 2.33.45.21 5.84.82 5.42 1.53-.57 1-7.6.59-8.69-.19Z"/><path fill="#6195af" d="M62.73 7.73c-.19.21-.93.28-1.21.5-.91-.25-.47-1.44-.16-1.98 1.15-.6 2.19.41 1.36 1.48Zm-6.36 5.41c-.95.73-1.82.48-1.72-.83.23-.71 1.95-.65 1.95.1 0 .04-.2.7-.22.73ZM67.3 30.31c.1-.08.07-.26.33-.31 1.77-.26.48 2.88-.98 1.58-.16-.73.16-.9.65-1.27m-3.25 52.76c.09.62-.3.5-.43.62-.3.72-1.21 1.56-2.04 1.38.28-.29.2-.65.37-.98.29-.57 1.44-1.39 2.1-1.01ZM48.76 39.41c-.45-.22-.3.06-.44.11-.59.22-1.2.33-1.79.54-.25.09-.83.59-1.06.29-.44-.59 2.98-2.53 3.29-.94m23.31 40.34c.04.07.33.11.34.2-.19.26-.29.28-.59.18l-.02.57-1.14.12c-.86-1.03 1.73-2.23 1.41-1.07M53.42 50.31c-.45.47-.93.47-1.31-.08-.63-.94 1.19-1.38 1.68-.64-.09.23-.19.55-.37.73ZM55.8 92.5c.06.52 0 .39-.4.68-.13.16-.14.42-.24.49-2.24.65-.48-2.12.64-1.17m11.81-18.1-.08.19-.65-.29c0-.25 1.01-1.21 1.28-1.3 1.48-.48.15 1.49-.56 1.4Zm-9.47-28.73c.38.39-.44.81.15.98-.47.19-.53.87-1.06.59-.72-.38.19-2.3.91-1.56Zm18.48 42.55c-.04.08-.69.45-.86.45-1.68-.74 1.38-2.31.86-.45m-19.03 8.95c-.07-.51.06-1.21.62-1.39 1.02.5.29 1.74-.62 1.39m8.03-11.37c-.17.21-.09.57-.27.73-.23.19-.76.21-.82-.13-.01-.07.78-1.16.84-1.19.71-.17.95.29.25.59m-17.1-44.5c.16.21-.84 1.26-1.21 1.04-1.03-.5.9-1.46 1.21-1.04m7.62-7.17c.67-.1.72.98.19 1.14-1.02.31-1.03-1.02-.19-1.14m21.88 41.72c-.63.48-1.42-.79.21-1.26.4.25.06 1.03-.21 1.26m-7.85 17.22c.18.94-1.78 1.55-1.3.52.24-.51.8-.58 1.3-.52m-8.15-39.74c.06.06 0 .32.26.37-.33.47-.56.8-1.18.53-.09-.52.38-1.45.91-.9Zm-5.38 7.85c.06.04.01.37.03.41.04.09.29 0 .21.46-.4 1.36-1.58-.97-.24-.87m6.77-19.73c.88-.05.2 1.87-.63.63.02-.19.47-.62.63-.63m3.92 57.01c-.34-.02-.79.3-1.03-.04.2-.85 1.63-1.1 1.03.04M52.99 22.47l.18.35.17-.23-.02.75c-1.23.88-.75-1.15-.34-.87Zm25.42 6v.47c-.45-.17-.85.04-1.29.12-.04-.78.76-.58 1.29-.59m-26.83-6.71c-.43-.1-1.1-.97-.27-1.04.51-.04.37.74.27 1.04m1.87 77.3-.81-.28c.39-.74 1.25-.73.81.28m20.13-2.93-.35.35.47-.12v.34l-.82.36c-.42-.63.05-.93.7-.94ZM58.87 9.52l-.12.59.35-.35c-.02 1.3-1.36.48-.63.07.13-.2-.1-.39.4-.31m5.89 47.07-.59-.12.12.35-.59-.12c.11-.73.88-.94 1.06-.12ZM15.29 65.5c-.04.08-.23-.08-.13.39-.13-.27-.56-.1-.62-.13-.57-.37.2-2.06.4-2.11.25-.06.66.05.73.32.08.32-.23.58-.3.82-.05.22.13.28-.09.71Zm2.87 4.74h-.47l.09.28-.32.26c-.73-.34-.36-1.41 0-1.94l.52.22c.12.22-.16.48-.14.65s.39.27.31.53Zm1.53 8c-.4-.11-.55.19-.93-.14.03-.76-.09-.97.52-1.51.46.64-.14 1.18.41 1.65m-8.96-21.27c-.2-.11-.67.15-.66-.34.03-1.09 1.77 0 .86.67-.09 0-.13-.29-.2-.33m15.52 26.01c.16.14.23.59-.04.67l-.75-.29.23-.47c.1-.06.48.03.56.1Zm1.61 4.74c0 .54-.84.54-.83 0 0-.54.84-.54.83 0M13.69 70.83l-.7-.41.18-.08.06-.21-.59-.06.59-.23c.32.22.42.63.47 1Zm10.45 14.61c.08.13 0 .4.02.57l.23.23-1.06-.83c-.17-.49.78-.02.8.02Zm15.79-78.5c.97-.19 2.15-.85 3.11-.54.29.02.67-.21.89.13-.03.87-2.09.75-2.69.94-.17 0-1.58-.24-1.31-.53M26.27 21.3c.17.4-.18.46-.18.48-.02.08.06.2.01.32-.25.6-.79 1.79-1.57 1.17-.13-.22.82-1.69.98-1.99zm-1.64-1.98c.12.11-.81 1.49-.96 1.69-.22.29-.75.49-.69.9-1.57-.07.91-2.87 1.65-2.59m8.69 49.42c.07.53.52 2.04-.38 1.85-.32-.11-.29-1.66-.19-1.99l.56.14Zm-7.63-39.45v.35l-.23-.23c.12.59-.43.67-.78.98-.25.22-.52 1.01-.98.49-.09-.44 1.25-1.24 1.43-1.68l.57.09Zm4.22 5.75h-.55c-.4-.83.17-1.33.8-1.74.38.6 0 1.16-.25 1.74m.58-17.19c-.12.21-.73.3-.92.07-.01-.65.23-1.12.65-1.58l.4.31-.13 1.19ZM16.28 30.47c0 .25-.2.38-.28.61-.2.48-.21.9-.44 1.36l-.57.02c.25-.67.38-2.1 1.29-2Zm24.12 46.6-.36 2.23h-.34c-.26-.21-.03-2.27.7-2.23m5.18-5.18.12.71.23-.12c-.22.5.06 1.28-.7 1.3-.09-.44-.29-1.88.35-1.88ZM36.75 9.17c-.07-.73.72-1.21 1.36-.83.28.88-.8.64-1.36.83m11.41 66.59c-.13-.07-.66.1-.57-.16.19-.53.39-1.06.46-1.64.83-.48.24 1.68.11 1.8M18.37 33.92s.02.18.07.27c.41.14.04.57.07.88-.26-.08-.44-.09-.64.11-.45-.35-.14-1.84.5-1.26m3.32-8.39-.49 1.04-.92-.1c-.1-.14.83-.91.91-.93.15-.04.34 0 .5 0ZM41.55 9.08c.41.77-1.06.73-1.38.27.23-.34 1.07-.55 1.38-.27m-1.5 61.75.47-.47c-.04.37-.06.61-.46.66-.75.08 0-1.55-.12-1.95.35.11.21 1.47.12 1.76Zm-13.3-45.89c-.15.53-.36 1.24-1.06 1.06-.09-.07.7-1.27 1.06-1.06M41.58 87.3h-.59l.06-.82.23.12.18-.36.18.24zM20.75 23.05c-.27-.02-.07-.52-.01-.66l-.23-.12.13-.4.29.23c.27-.18.15-.34.06-.59l.47.18c-.29.4-.67.85-.71 1.35Zm10 1.42c.11.13-.04.39-.24.41v.3l.24.06-.7.18c-.08-.36.36-.91.7-.94Zm53.27 31.86c-.36.15-.84 1.39-1.08 1.57-.15.15-.25-.03-.42-.01-.14-.17 1.01-1.57.95-1.99.25.01.77.05.55.44Zm9.1-24.45-.11.35.23.12c-.9-.16-.53.67-.75.83-.25.18-.8.2-1.01-.07.18-.29.85-.63 1.03-.67.17-.13.14-.73.61-.57Zm-13.3 26.24.18-.82c.32-.04.61-.91.82-.83.59.24-.81 1.85-1 1.65m11.29 23.53-.35-.3.48-1.17.58-.17zm-.12-49.89c-.64.25-.32.96-1.52.83l.54-.69.93-.37zM83.23 52c-.49.14-.73 1.64-1.17 1.53-.37-.39.61-1.7 1.17-1.53m-8.39-33.69c-.2.2-1.14.86-1.37.63-.46-.46 1.55-1.32 1.53-1.76l.29.11c.2.3-.23.8-.46 1.02Zm4.04.16c.34.37-1.35.43-1.53.12.29-.4 1.09-.15 1.53-.12"/></svg>