<svg xmlns="http://www.w3.org/2000/svg" data-name="Layer 2" viewBox="0 0 30.3 38.29"><path fill="#c9c3b3" d="M12.79 15.63s0 .02.01.03c0 0 0-.02-.01-.03"/><path d="M13.12 15.2C7.05 4.9 7 8.04 11.81 16.54c.47-.27 1.07-.57 1.47-.93.03-.15-.09-.29-.16-.41m-.32.45s0-.01-.01-.03c0 0 .01.02.01.03"/><path fill="#c9c3b3" d="M9.39 10.97c.9 1.58 1.8 3.16 2.59 4.8.18-.16.58.14.81-.08-1.25-2.17-2.47-4.7-4.17-6.53.06.64.48 1.24.77 1.81m6.81 11.12-.02-.02s.01.02.02.02"/><path d="M16.41 21.64c-.48.23-.99.68-1.42 1.01 6.04 7.67 8.97 8.82 1.74-.71-.09-.11-.17-.28-.32-.3m-.21.45-.02-.02s.01.02.02.02"/><path fill="#c9c3b3" d="M19.23 27c-1.12-1.44-2.24-2.87-3.46-4.22.22-.11.09-.59.39-.72 1.53 1.98 3.41 4.07 4.46 6.34-.57-.3-.96-.92-1.39-1.4"/><path d="M21.31 23.98c-.93-.34-2.04.88-4.4 1.86-4.16.89-.45 5.49.34 7.36 1.08 2.12.92 5.96 3.68 4.91 2.39-.92 5.98-1.98 5.5-3.47-.79-2.76-2.57-9.67-5.11-10.66Z"/><path fill="#e7413e" d="M21.27 24.68c-5.58 1.98-7.48 2.08-3.67 8.32.98 1.91.83 5.39 3.32 4.43 2.16-.83 5.4-1.78 4.96-3.13-.71-2.5-2.32-8.73-4.61-9.62"/><path fill="#e54e4e" d="M21.16 25.23c-.67-.24-1.47.63-3.17 1.34-3 .64-.32 3.96.24 5.3.78 1.53.67 4.3 2.65 3.54 1.72-.66 4.31-1.42 3.96-2.5-.57-1.99-1.85-6.97-3.68-7.68"/><path d="M13.42 10.78c-4.55 3.58-7.38 4.98-9.85-2.14C2.5 6.52-.7 4.38 1.77 2.77 3.92 1.38 6.89-.9 7.81.37c1.77 2.27 6.31 7.76 5.61 10.4Z"/><path fill="#e7413e" d="M12.69 10.32c-3.83 3.14-6.65 4.26-8.66-1.88C3.08 6.57.27 4.7 2.44 3.28 4.34 2.05 6.95.05 7.76 1.17c1.56 1.99 5.55 6.83 4.93 9.15"/><path fill="#e54e4e" d="M12.57 10.37c-2.75 2.39-5.19 3.13-6.58-1.43-.72-1.42-2.86-2.84-1.2-3.92 4.22-4.69 7.35 2.2 7.79 5.35Z"/><path d="M5.66 17.9c-.25 1.15.82 1.65 2.24 4.6 1.66 5.77 5.72 2.46 8.66.62 1.12-.65 6.29-2.51 5.02-4.5s-3.02-7.48-4.64-6.9c-2.78 1.1-10.06 4.07-11.28 6.18"/><path fill="#ea6013" d="M6.3 18.07c-.21.67 3.08 6.71 4.18 7.32 1.51.56 4.88-1.96 5.85-2.56 3.09-1.93 5.76-2.75 4.71-4.2-1.22-1.69-2.92-6.86-4.34-6.35-1.7 1.15-9.44 3.71-10.39 5.79Z"/><path d="M2.94 19.98c-3.15 1.61-4.08.02-1.25 5.56 2.82 5.55 2.08 3.87 5.24 2.26s-.83-9.43-3.98-7.82Z"/><path fill="#ea6013" d="M3.39 20.59c-2.71 1.19-3.41-.18-1.31 4.59s1.56 3.33 4.27 2.13-.25-7.92-2.96-6.72"/><path d="M4.59 22.4c-.37-.35-.85-1.35-1.45-.87 1.11 1.56 2.01 3.28 2.6 5.1l.38-.19c0-1.51-.65-2.86-1.53-4.04m-2.23.67-.38.19c.79.94 1.38 2.06 1.65 3.25 1.23-.82-.17-2.97-1.27-3.45Zm10.78.38c-.14-.41-.48-.7-.71-1.05-.63-.47-1.93.43-2.32.98.07.52.45 1.21.86 1.51.76-.02 2.39-.44 2.18-1.44Z"/><path fill="#c9c3b3" d="M12.84 23.6c-.08-.34-.32-.59-.48-.89-.46-.42-1.56.18-1.91.59.01.42.26 1 .55 1.26.6.05 1.92-.15 1.84-.96"/><path d="M18 14.45c-.14-.41-.48-.7-.71-1.05-.63-.47-1.93.43-2.32.98.07.52.45 1.21.86 1.51.76-.02 2.39-.44 2.18-1.44Z"/><path fill="#c9c3b3" d="M17.7 14.6c-.08-.34-.32-.59-.48-.89-.46-.42-1.56.18-1.91.59.01.42.26 1 .55 1.26.6.05 1.92-.15 1.84-.96"/><path d="M12.46 7.22c-.85.2-1.61.59-2.35 1.05q-.555-.96-1.17-1.89c.75-.43 1.55-.79 2.32-.82.21-2-1.77-.18-2.67.29-.54-.8-1.1-1.59-1.66-2.39.68-.41 1.41-.74 2.12-.77l-.1-1.02c-.89.21-1.68.71-2.42 1.22-.4-.57-.8-1.14-1.2-1.72l-.81.63c.43.53.86 1.06 1.27 1.61-.42.3-.83.62-1.25.94-.46-.68-1-1.51-1.54-1.99l-.81.63c.4.75.97 1.36 1.48 2.03-.56.43-1.11.86-1.65 1.26l.71.74q.645-.765 1.38-1.44c.58.75 1.17 1.51 1.68 2.24-.62.45-1.24.89-1.89 1.31l.68.77c.48-.56 1.01-1.07 1.57-1.55.39.59.79 1.2 1.15 1.83-.69.5-1.4 1.03-1.98 1.46l.67.77c.53-.53 1.1-1.03 1.69-1.51.34.68.61 1.38.77 2.09l.99-.24c-.31-.84-.69-1.61-1.11-2.36.47-.37.94-.69 1.46-1.01.43.81.8 1.64 1 2.49l.99-.24c-.37-.93-.8-1.82-1.28-2.68.67-.37 1.36-.68 2.05-.73l-.1-1.02ZM4.91 4.9c.42-.34.83-.65 1.28-.96.59.78 1.15 1.58 1.7 2.38-.48.33-.95.67-1.42 1.02-.51-.82-1.03-1.64-1.56-2.44m3.75 4.33c-.22.15-.47.32-.72.5-.37-.63-.77-1.25-1.16-1.88.47-.37.93-.7 1.44-1.02.4.61.81 1.25 1.19 1.9l-.75.51Zm15.95 23.35c-.43.12-.85.26-1.27.41-.24-.7-.51-1.4-.79-2.09.78-.27 1.6-.45 2.32-.33l.1-1.02c-.94.05-1.82.38-2.67.75-.37-.87-.75-1.73-1.14-2.59.75-.28 1.53-.47 2.23-.38.58-1.87-1.56-.58-2.52-.27-.34-.76-.68-1.52-1.01-2.29l-.91.46c.39.73.76 1.47 1.13 2.21-.49.24-.94.45-1.43.71-.32-.78-.67-1.71-1.11-2.32l-.92.45c.25.84.69 1.58 1.05 2.38-.73.38-1.48.76-2.09 1.06l.56.86c.58-.47 1.2-.9 1.84-1.29.4.83.79 1.66 1.14 2.46-.66.31-1.33.62-2.02.91l.53.88c.55-.44 1.13-.83 1.74-1.19.26.66.53 1.33.76 2.02-.72.35-1.43.7-2.13 1.02l.52.88c.59-.41 1.21-.78 1.85-1.12.23.83.4 1.66.42 2.48l1.02-.05c-.16-.99-.41-1.91-.71-2.82.57-.29 1.11-.53 1.71-.76.27.89.48 1.78.52 2.67l1.02-.05c-.19-.99-.45-1.96-.75-2.91.69-.23 1.4-.38 2.05-.3l.1-1.02q-.585 0-1.14.15Zm-5.72-3.81c.49-.27.95-.5 1.47-.72.41.86.8 1.73 1.17 2.6-.55.25-1.1.5-1.65.76q-.48-1.32-.99-2.64m1.95 5.27c-.24-.69-.5-1.38-.75-2.08.55-.29 1.09-.54 1.67-.77.27.68.55 1.38.8 2.09-.58.23-1.15.49-1.72.76m8.66-23.13c-.4-.63-1.56.17-2.07.49-.91-.19-2.5-.31-3.46-.42.15.29 2.03 3.99 2.22 4.36.33-.6 1.38-2.33 1.67-3.04.58-.3 1.8-.53 1.63-1.39Z"/><path fill="#c9c3b3" d="M29.21 11.06c-.32-.42-1.49.33-1.91.54-.74-.13-2.03-.21-2.81-.28.12.2 1.65 2.67 1.8 2.91.27-.4 1.12-1.56 1.36-2.03.47-.2 1.69-.57 1.56-1.14"/><path d="M29.52 10.19c-1.05-.01-1.03 1.62 0 1.6 1.05.01 1.03-1.62 0-1.6"/><path fill="#d15213" d="M29.42 10.53c-.61 0-.6.95 0 .93.61 0 .6-.95 0-.93"/><path d="M27.73 15.94c-.4 1.07-3.8-.72-5.3 0s-2.61-1.27-1.06-2.08 2-4.4 3.05-4.41 3.71 5.43 3.31 6.5Z"/><path fill="#d15213" d="M27.13 15.64c-.34.91-3.14-.96-4.56-.27s-2.14-.54-.66-1.3 1.52-3.93 2.41-3.95 3.14 4.61 2.81 5.52"/><path fill="#d65922" d="M24.97 13.36c-.03-.7-.09-.46-.27-.45s-.09.57-.06 1.27-.02.79.16.78.2-.9.18-1.6Z"/><path fill="#ea8553" d="M10.66 16.54c0-.24.11-.37.02-.37s-.13.24-.12.47-.01.27.07.26.03-.13.02-.37Zm6.02 5.26c.03.23-.08.38 0 .37s.19 0 .16-.23-.09-.51-.17-.5-.02.14 0 .37Zm-2.49-2.4c-.01-.34-.03-.22-.08-.22s-.02.28 0 .62 0 .38.05.38.05-.43.04-.77Zm-1.15 1.4c-.01-.34-.03-.22-.08-.22s-.02.28 0 .62 0 .38.05.38.05-.43.04-.77Zm.01 1.03s-.01-.17-.07-.16c-.03 0-.04.16-.03.18s.03.04.06.04.04-.03.04-.06"/></svg>