<svg xmlns="http://www.w3.org/2000/svg" width="287" height="55" fill="none"><path fill="#000" d="M77.362 16.137H66.13V8.375h34.208v7.762H89.107v30.305H77.362z"/><path fill="#000" d="M92.058 20.161h11.279v6.173h-11.28zm0 8.613h11.279v17.669h-11.28zm13.712-8.614h11.279v3.32c1.872-2.524 4.588-3.88 8.002-3.88 5.333 0 8.937 3.275 8.937 8.744v18.098h-11.279V29.654c0-1.871-1.17-2.806-2.76-2.806-1.218 0-2.246.513-2.903 1.357v18.237h-11.279V20.161zm31.403 28.34h4.339c1.261-.005 2.099-1.318 1.654-2.496l-9.736-25.843h11.278l4.959 15.945 4.728-15.945h10.762L155.096 47.8c-1.824 4.721-5.101 7.2-10.108 7.2h-7.815z"/><path fill="#000" d="M170.429 16.137h-11.231V8.375h34.208v7.762h-11.232v30.305h-11.745z"/><path fill="#000" d="M185.619 39.943c0-5.565 6.037-6.969 11.279-8.465 3.556-1.028 5.663-1.919 5.663-3.507 0-1.17-.984-1.918-2.668-1.918-2.059 0-3.465 1.31-3.884 3.74h-9.968c1.075-6.36 6.786-10.288 14.506-10.288 8.375 0 12.963 3.694 12.963 10.476v16.462h-10.997v-2.62c-1.872 2.059-4.727 3.181-8.189 3.181-5.193 0-8.705-2.711-8.705-7.061m13.29 1.17c1.358 0 2.716-.514 3.604-1.402v-3.646l.048-1.918c-.749.466-1.637.84-2.526 1.214-2.199.888-3.744 1.779-3.744 3.507 0 1.45.936 2.245 2.621 2.245zm17.035-27.403h11.278v32.737h-11.278zm13.712-.001h11.136l-.139 16.928 7.814-10.476h11.324l-8.376 10.568 8.658 15.714h-12.028l-4.54-9.167-2.808 3.32.093 5.847h-11.137V13.706z"/><path fill="#000" d="M258.251 37.605h9.969c.466 2.432 2.011 3.602 4.21 3.602s3.182-.796 3.182-1.776c0-1.683-2.713-2.244-5.99-2.945-5.006-1.03-11.323-2.337-11.323-8.37 0-5.146 5.101-8.653 13.008-8.653s13.243 3.18 14.461 9.258h-9.921c-.562-2.337-2.059-3.275-4.21-3.275-1.92 0-2.856.748-2.856 1.684 0 1.591 2.761 2.105 6.082 2.806 5.007 1.027 11.327 2.432 11.327 8.37 0 5.143-5.147 8.84-13.478 8.84-7.814 0-13.243-3.088-14.461-9.54"/><path fill="#6D51EE" d="M20.465 1.092v6.712c0 .603.49 1.091 1.093 1.091h1.503c.433 0 .827.257 1 .654l3.366 7.706 3.367-7.706a1.09 1.09 0 0 1 1-.654h1.503c.604 0 1.093-.488 1.093-1.091V1.092C34.39.489 33.9 0 33.297 0H21.56c-.603 0-1.092.489-1.092 1.092zm20.661 2.791-4.75 4.746a1.09 1.09 0 0 0 0 1.544l1.062 1.061c.307.307.402.765.243 1.17l-3.073 7.829 7.834-3.071c.405-.16.863-.062 1.17.242l1.062 1.061a1.09 1.09 0 0 0 1.545 0l4.75-4.746a1.09 1.09 0 0 0 0-1.544l-8.3-8.295a1.09 1.09 0 0 0-1.546 0zm12.636 16.571h-6.716c-.603 0-1.093.489-1.093 1.092v1.502c0 .433-.257.826-.653 1l-7.711 3.364 7.71 3.364c.398.173.654.567.654 1v1.502c0 .603.49 1.092 1.093 1.092h6.716c.604 0 1.093-.489 1.093-1.092v-11.73c0-.602-.49-1.091-1.093-1.091zm-2.791 20.648-4.75-4.747a1.09 1.09 0 0 0-1.544 0l-1.062 1.061a1.09 1.09 0 0 1-1.17.243l-7.834-3.071 3.073 7.829c.159.405.061.862-.243 1.17l-1.062 1.06a1.09 1.09 0 0 0 0 1.544l4.75 4.747a1.09 1.09 0 0 0 1.544 0l8.301-8.295a1.09 1.09 0 0 0 0-1.544zM34.387 53.727v-6.712c0-.603-.489-1.092-1.093-1.092h-1.502a1.09 1.09 0 0 1-1-.653l-3.367-7.706-3.367 7.706a1.09 1.09 0 0 1-1 .653h-1.503c-.604 0-1.093.489-1.093 1.092v6.712c0 .603.49 1.092 1.093 1.092h11.737c.603 0 1.092-.489 1.092-1.092zm-20.661-2.789 4.75-4.747a1.09 1.09 0 0 0 0-1.544l-1.062-1.06a1.09 1.09 0 0 1-.243-1.17l3.073-7.83-7.834 3.072c-.405.16-.863.061-1.17-.243l-1.062-1.06a1.09 1.09 0 0 0-1.545 0l-4.75 4.746a1.09 1.09 0 0 0 0 1.544l8.301 8.295a1.09 1.09 0 0 0 1.545 0zM1.092 34.367H7.81c.603 0 1.092-.489 1.092-1.092v-1.502c0-.433.257-.827.654-1l7.711-3.364-7.711-3.364a1.09 1.09 0 0 1-.654-1v-1.502c0-.603-.489-1.092-1.092-1.092H1.092C.49 20.451 0 20.94 0 21.543v11.73c0 .602.489 1.091 1.092 1.091zM3.884 13.72l4.75 4.746a1.09 1.09 0 0 0 1.544 0l1.062-1.06a1.09 1.09 0 0 1 1.17-.244l7.834 3.072-3.073-7.83a1.09 1.09 0 0 1 .243-1.17l1.062-1.06a1.09 1.09 0 0 0 0-1.544l-4.75-4.747a1.09 1.09 0 0 0-1.545 0l-8.3 8.296a1.09 1.09 0 0 0 0 1.543z"/></svg>